<?xml version="1.0" encoding="UTF-8" standalone="no"?>
<!DOCTYPE svg PUBLIC "-//W3C//DTD SVG 1.1//EN" "http://www.w3.org/Graphics/SVG/1.1/DTD/svg11.dtd">
<svg fill="#f1f1f1" version="1.1" xmlns="http://www.w3.org/2000/svg" xmlns:xlink="http://www.w3.org/1999/xlink" preserveAspectRatio="xMidYMid meet" viewBox="0 0 600 200" width="600" height="200"><defs><path d="M56.14 -36.03L78.57 -28.36L-11.05 233.66L-33.48 225.99L56.14 -36.03Z" id="k2m31Pe2pZ"></path><path d="M112.17 -36.03L134.6 -28.36L44.97 233.66L22.54 225.99L112.17 -36.03Z" id="aOdG7xmJ"></path><path d="M168.2 -38.13L190.63 -30.45L101 231.56L78.57 223.89L168.2 -38.13Z" id="aIXrNwIhQ"></path><path d="M224.23 -29.82L246.65 -22.15L157.03 239.87L134.6 232.2L224.23 -29.82Z" id="a34S3CZL06"></path><path d="M280.25 -29.82L302.68 -22.15L213.06 239.87L190.63 232.2L280.25 -29.82Z" id="b2jkno4HIn"></path><path d="M336.28 -29.82L358.71 -22.15L269.08 239.87L246.65 232.2L336.28 -29.82Z" id="d5KVQOw11b"></path><path d="M392.31 -29.82L414.74 -22.15L325.11 239.87L302.68 232.2L392.31 -29.82Z" id="bEVmPX1cP"></path><path d="M448.34 -27.81L470.77 -20.14L381.14 241.88L358.71 234.21L448.34 -27.81Z" id="aMFfDs2XH"></path><path d="M508.56 -29.82L530.99 -22.15L441.36 239.87L418.93 232.2L508.56 -29.82Z" id="ctknYw7q2"></path><path d="M564.59 -27.81L587.02 -20.14L497.39 241.88L474.96 234.21L564.59 -27.81Z" id="gjoS4DofY"></path><path d="M620.62 -27.81L643.05 -20.14L553.42 241.88L530.99 234.21L620.62 -27.81Z" id="dNybB55Rw"></path><path d="M0.11 -50.8L22.54 -43.13L-67.08 218.89L-89.51 211.22L0.11 -50.8Z" id="amBlkbPH8"></path></defs><g><g><g><use xlink:href="#k2m31Pe2pZ" opacity="1" fill-opacity="1"></use></g><g><use xlink:href="#aOdG7xmJ" opacity="1" fill-opacity="1"></use></g><g><use xlink:href="#aIXrNwIhQ" opacity="1" fill-opacity="1"></use></g><g><use xlink:href="#a34S3CZL06" opacity="1" fill-opacity="1"></use></g><g><use xlink:href="#b2jkno4HIn" opacity="1" fill-opacity="1"></use></g><g><use xlink:href="#d5KVQOw11b" opacity="1" fill-opacity="1"></use></g><g><use xlink:href="#bEVmPX1cP" opacity="1" fill-opacity="1"></use></g><g><use xlink:href="#aMFfDs2XH" opacity="1" fill-opacity="1"></use></g><g><use xlink:href="#ctknYw7q2" opacity="1" fill-opacity="1"></use></g><g><use xlink:href="#gjoS4DofY" opacity="1" fill-opacity="1"></use></g><g><use xlink:href="#dNybB55Rw" opacity="1"  fill-opacity="1"></use></g><g><use xlink:href="#amBlkbPH8" opacity="1"  fill-opacity="1"></use></g></g></g></svg>